<?xml version="1.0" encoding="utf-8"?>
<!-- Generator: Adobe Illustrator 23.0.6, SVG Export Plug-In . SVG Version: 6.00 Build 0)  -->
<!DOCTYPE svg PUBLIC "-//W3C//DTD SVG 1.1//EN" "http://www.w3.org/Graphics/SVG/1.1/DTD/svg11.dtd" [
	<!ENTITY ns_extend "http://ns.adobe.com/Extensibility/1.0/">
	<!ENTITY ns_ai "http://ns.adobe.com/AdobeIllustrator/10.0/">
	<!ENTITY ns_graphs "http://ns.adobe.com/Graphs/1.0/">
	<!ENTITY ns_vars "http://ns.adobe.com/Variables/1.0/">
	<!ENTITY ns_imrep "http://ns.adobe.com/ImageReplacement/1.0/">
	<!ENTITY ns_sfw "http://ns.adobe.com/SaveForWeb/1.0/">
	<!ENTITY ns_custom "http://ns.adobe.com/GenericCustomNamespace/1.0/">
	<!ENTITY ns_adobe_xpath "http://ns.adobe.com/XPath/1.0/">
]>
<svg version="1.1" id="Layer_1" xmlns:x="&ns_extend;" xmlns:i="&ns_ai;" xmlns:graph="&ns_graphs;"
	 xmlns="http://www.w3.org/2000/svg" xmlns:xlink="http://www.w3.org/1999/xlink" x="0px" y="0px" width="1000px" height="1000px"
	 viewBox="0 0 1000 1000" style="enable-background:new 0 0 1000 1000;" xml:space="preserve">
<style type="text/css">
	.st0{fill:#FFF4E7;}
	.st1{fill:#545551;}
	.st2{fill:#010101;}
	.st3{fill:none;stroke:#000000;stroke-width:2;stroke-linecap:round;stroke-linejoin:round;stroke-miterlimit:10;}
	.st4{fill:none;stroke:#000000;stroke-width:5;stroke-miterlimit:10;}
	.st5{fill:none;stroke:#010101;stroke-miterlimit:10;}
	.st6{fill:none;stroke:#000000;stroke-width:7;stroke-miterlimit:10;}
	.st7{fill:#FFFFFF;}
	.st8{fill:#333333;}
	.st9{fill:#544040;}
	.st10{fill:#E87D47;}
	.st11{fill:#FFEEDA;}
	.st12{fill:#F26739;}
	.st13{fill:#61615D;}
	.st14{fill:none;stroke:#EADAC9;stroke-miterlimit:10;stroke-dasharray:12.0926,12.0926;}
	.st15{fill:url(#SVGID_1_);}
	.st16{fill:url(#SVGID_2_);}
	.st17{fill:#C7BEB3;}
	.st18{fill:#FFF9F2;}
	.st19{fill:#F2924B;}
	.st20{fill:#48453F;}
	.st21{fill:#F2924B;stroke:#F2924B;stroke-miterlimit:10;}
	.st22{fill:url(#SVGID_3_);}
	.st23{fill:#D68141;}
	.st24{fill:url(#SVGID_4_);}
	.st25{opacity:0.79;fill:#FFFFFF;}
	.st26{fill:#F1934B;}
	.st27{fill:url(#SVGID_5_);}
	.st28{opacity:0.4;}
	.st29{fill:none;stroke:#FFF9F2;stroke-miterlimit:10;}
	.st30{fill:none;stroke:#FFF9F2;stroke-miterlimit:10;stroke-dasharray:12.2222,12.2222;}
	.st31{fill:#B46D36;}
	.st32{fill:#F1934B;stroke:#B46D36;stroke-miterlimit:10;}
	.st33{fill:#46433E;}
	.st34{fill:#FFF8F1;}
</style>
<metadata>
	<sfw  xmlns="&ns_sfw;">
		<slices></slices>
		<sliceSourceBounds  bottomLeftOrigin="true" height="7992.8" width="7635.9" x="-4217" y="-8038"></sliceSourceBounds>
	</sfw>
</metadata>
<path class="st19" d="M815,459l-58.6,0l0.1-54.4l-176.8-0.2c4.3-3.6,8.4-7.5,12-11.9c12.9-15.8,19.6-34.8,19.9-57.1
	c0.3-20.8-4-38.8-13.1-54.2c-9-15.3-22-27.3-39-35.8c-16.3-8.2-35.6-12.5-57.8-13.1l0.9-57.2l-43.3-0.6l-0.8,57.1l-32-0.5l0.8-57.1
	l-43.3-0.6l-0.8,57.1l-48.2-0.7l-2.6,174.4L166.7,404l-0.1,145.3c-0.2,162.6,132,295,294.6,295.1c0.1,0,0.2,0,0.3,0
	c78.6,0,152.6-30.6,208.3-86.2c11.8-11.8,22.4-24.4,31.9-37.7c20.2-0.2,58.8-2.4,82.6-14.2c2.7-1.4,6.1-2.9,9.9-4.6
	c33.4-15.2,111.6-50.7,111.7-138.2C905.9,477.8,840.3,459,815,459z M541.3,459c13.2,6,23.5,14.2,30.8,24.7
	c7.3,10.5,10.9,22.7,10.7,36.5c-0.2,14.6-4,27.5-11.2,38.5c-7.3,11.1-17.4,19.5-30.4,25.2c-13,5.8-28.1,8.5-45.4,8.3l-121.2-1.8
	l2.1-140.4l127.9,0.1C518.3,451.3,530.6,454.1,541.3,459z M377.3,404l1.9-129.9l111.4,1.6c23.9,0.4,42.3,6.6,55.4,18.7
	c13.1,12.1,19.5,28,19.2,47.6c-0.2,12.3-3.4,23.3-9.7,33c-6.3,9.7-14.9,17.3-25.7,22.7c-6.1,3-12.7,5.1-19.7,6.4l-124.2-0.1
	L377.3,404z M637.3,725.8c-47,46.9-109.5,72.8-175.9,72.8c-0.1,0-0.2,0-0.2,0c-137.3-0.1-248.8-111.9-248.7-249.2l0.1-99.4l119,0.1
	l-2.7,183.6l48.2,0.7l-0.8,55l43.3,0.6l0.8-55l32,0.5l-0.8,55l43.3,0.6l0.8-55l2.9,0c19.6,0.3,37.5-2.2,53.5-7.6
	c16-5.3,29.8-13.1,41.3-23.3c11.5-10.2,20.4-22.6,26.8-37.1c6.4-14.5,9.7-30.8,10-48.9c0.3-17.7-3.5-33.7-11.1-48.1
	c-4-7.6-9-14.5-14.7-20.8l106.1,0.1l-0.1,99.4C710.3,616.3,684.4,678.8,637.3,725.8z M775.2,659.9c-4.4,2-8.2,3.7-11.4,5.3
	c-7.8,3.9-20.9,6.4-34.5,7.8c17.6-38.1,27-80,27-123.2l0-45l58.6,0.1c4.6,0,45,1.7,45,58.7C859.9,617,816.1,641.3,775.2,659.9z"/>
</svg>
